<svg id="Layer_1" data-name="Layer 1" xmlns="http://www.w3.org/2000/svg" viewBox="0 0 310.7 119.58"><defs><style>.cls-1{fill:#231f20;}.cls-2{fill:#fff;}</style></defs><path class="cls-1" d="M573,5.9h29.6V11H578.1V27.2h24.2v5H578.1V52.5h24.2v5.1H573Z" transform="translate(-573 -5.9)"/><path class="cls-1" d="M610.8,19.4h4.9V26c5.4-9.9,22.1-10.5,25.2,1.6,4.4-10.3,21-13.2,25.6-1.6,2.5,5.4,1.1,25,1.5,31.6h-5c-1-7.4,3-28.9-3.9-33.1-20.6-7.6-17.2,20.3-17.3,33.1h-5c-1-7.9,2.9-28.4-3.9-33-5.7-3.8-13.6.1-15.8,6.1-2.3,4.8-1.2,20.8-1.4,26.9h-4.9V19.4Z" transform="translate(-573 -5.9)"/><path class="cls-1" d="M678.3,19.4h4.9V26c5.4-9.9,22.2-10.5,25.2,1.6,4.4-10.3,21-13.2,25.6-1.6,2.5,5.4,1.1,25,1.5,31.6h-5c-1-7.4,3-28.9-3.9-33.1-20.6-7.6-17.2,20.3-17.3,33.1h-4.9c-1-7.9,2.9-28.4-3.9-33-5.7-3.8-13.7,0-15.9,6.1-2.3,4.8-1.2,20.8-1.4,26.9h-4.9V19.4Z" transform="translate(-573 -5.9)"/><path class="cls-1" d="M784,19.4V57.7h-4.9V51c-10.9,15-35.9,5.6-35-12.7-.9-18.1,24.9-27.7,35-12v-7Zm-19.7,3.7c-19.9,0-19.8,30.8,0,30.9C784.3,54.2,784.2,22.9,764.3,23.1Z" transform="translate(-573 -5.9)"/><path class="cls-1" d="M573,72.7c5.4,0,19-.2,22.2.8,9.5,1.8,13.2,14.3,7.3,21.5-6,6.7-14.1,5-24.4,5.4v24H573Zm5.1,5.1V95.4c9.5.6,26.9,1,20.4-13.6C594.4,75.6,584.3,78.3,578.1,77.8Z" transform="translate(-573 -5.9)"/><path class="cls-1" d="M652.9,86.2v38.2H648v-6.6c-10.9,15-35.9,5.6-35-12.7-.9-18.1,24.8-27.7,34.9-12v-7h5ZM633.2,90c-19.8,0-19.8,30.8,0,30.9,20,.2,19.9-31.1,0-30.9Z" transform="translate(-573 -5.9)"/><path class="cls-1" d="M701.1,94.1l-3.9,2.4c-8.2-12.2-30.5-6.8-30,8.7-.3,15.6,21.3,21,30,9l3.9,2.6c-10.4,15.8-39.6,8.8-38.9-11.1C661.3,85.7,690.9,77.5,701.1,94.1Z" transform="translate(-573 -5.9)"/><path class="cls-1" d="M710.5,71.4h4.9v30.2l17.7-15.4h7.2l-21,18.2,22.3,20h-6.9l-19.3-17.2v17.2h-4.9Z" transform="translate(-573 -5.9)"/><path class="cls-1" d="M784.8,86.2v38.2h-4.9v-6.6c-10.9,15-36,5.6-35-12.7-.9-18.1,24.9-27.7,35-12v-7h4.9ZM765.1,90c-19.8,0-19.8,30.8,0,30.9,20,.1,20-31.1,0-30.9Z" transform="translate(-573 -5.9)"/><path class="cls-1" d="M794,86.2h5v5.6c2.9-4.7,9-8.7,14.3-5.3l-2.5,4.1c-16-3.4-10.8,23-11.7,33.8h-5Z" transform="translate(-573 -5.9)"/><path class="cls-1" d="M855.7,71.4v53h-4.8v-6.6c-10.8,15-35.9,5.6-35-12.6-.9-18.1,24.9-27.7,35-12V71.4ZM836,89.9c-19.8,0-19.8,30.8,0,30.9C856,121,855.9,89.8,836,89.9Z" transform="translate(-573 -5.9)"/><path d="M883.7,35.8c-.3,1.1-.5,2.2-.8,3.3a27.43,27.43,0,0,1-6.3,10,78.28,78.28,0,0,1-19.7,15.1c-1.1.6-1.6.5-2.5-.5-.1-.2-.4-.3-.6-.4a39,39,0,0,1-13.9-9.1c-.1-.1-.2-.2-.3-.2s-.2,0-.2.1c-4,4.3-8.1,8.5-12.1,12.8-.7.8-1.4,1.5-2.2,2.3-2.3,2.4-5.1,2.8-8.2,1.6a35.56,35.56,0,0,1-10.8-6.7,50.39,50.39,0,0,1-13.5-21,18.65,18.65,0,0,1-.9-10.2A10.65,10.65,0,0,1,802.3,24c5.3-.2,9.3,2.4,12.3,6.5.6.8,1.1,1.8,1.8,2.8a6.89,6.89,0,0,1,.3-.8c2.1-4.8,5.5-8,10.8-8.7,3-.4,5.7.1,7.7,2.6a.35.35,0,0,0,.2-.1c3.5-3.4,7.7-3.9,12.1-2.3a16.61,16.61,0,0,1,8.7,7.2,6.13,6.13,0,0,0,.4.6,20.22,20.22,0,0,1,4.7-6.8c3.7-3.5,8.1-4.7,13-3.1s7.7,5.4,8.8,10.4a1.42,1.42,0,0,0,.2.6A6.59,6.59,0,0,1,883.7,35.8Zm-49.3-7.4a7.17,7.17,0,0,0-4.3-1.8,8.41,8.41,0,0,0-6.5,2.4,12.76,12.76,0,0,0-4.7,10.6,1.62,1.62,0,0,1-1.4,1.6,1.47,1.47,0,0,1-1.6-1.1c-.4-1.3-.7-2.6-1.2-3.8-1.7-4.6-4.7-7.7-9.6-8.7a8.42,8.42,0,0,0-10.3,6.8,14.71,14.71,0,0,0,.9,7.5,58.67,58.67,0,0,0,10.4,17.3,26,26,0,0,0,8.2,6.9,8.34,8.34,0,0,0,8.1.2,29.37,29.37,0,0,0,4.7-3.1c2.9-2.6,5.7-5.4,8.6-8.2.9-.8,1.7-1.6,2.6-2.4C831.4,44.1,830.3,35.4,834.4,28.4Zm.7,7.3c.1,1.1.2,2.3.4,3.4A24.45,24.45,0,0,0,845,54.2c3.1,2.4,6.5,4.7,9.7,6.9a1.39,1.39,0,0,0,.9,0c1.2-.7,2.4-1.4,3.6-2.2,5.5-3.6,10.7-7.5,14.9-12.6,3-3.5,5.3-7.4,5.8-12.1.6-4.9-2.4-9-7-9.6-6.4-.8-14.5,5-13.9,12.2.1.7-.4,1.1-1.1,1.2-1.1.1-1.4-.1-1.8-1.1a43.87,43.87,0,0,0-2.9-6.2,9.06,9.06,0,0,0-8.1-4.4C839.1,26.2,835,30.1,835.1,35.7Z" transform="translate(-573 -5.9)"/><path class="cls-2" d="M834.4,28.4c-4.2,7-3.1,15.7,3.9,23.9-.9.8-1.7,1.6-2.6,2.4-2.8,2.7-5.6,5.5-8.6,8.2a25.5,25.5,0,0,1-4.7,3.1,8.09,8.09,0,0,1-8.1-.2,30.14,30.14,0,0,1-8.2-6.9,55.46,55.46,0,0,1-10.4-17.3,13.72,13.72,0,0,1-.9-7.5c.8-4.9,5.2-7.8,10.3-6.8,4.9,1,7.9,4.2,9.6,8.7.5,1.3.8,2.6,1.2,3.8a1.34,1.34,0,0,0,1.6,1.1,1.62,1.62,0,0,0,1.4-1.6,13.35,13.35,0,0,1,4.7-10.6,9.05,9.05,0,0,1,6.5-2.4A9.15,9.15,0,0,1,834.4,28.4Z" transform="translate(-573 -5.9)"/><path class="cls-2" d="M835.1,35.7c0-5.6,4-9.5,9.9-9.5a9.06,9.06,0,0,1,8.1,4.4,43.87,43.87,0,0,1,2.9,6.2c.5,1,.7,1.2,1.8,1.1.7-.1,1.1-.4,1.1-1.2-.7-7.2,7.5-13,13.9-12.2,4.6.6,7.6,4.7,7,9.6-.5,4.7-2.8,8.6-5.8,12.1-4.2,5.1-9.4,9-14.9,12.6-1.2.8-2.4,1.5-3.6,2.2a1.39,1.39,0,0,1-.9,0c-3.3-2.3-6.6-4.5-9.7-6.9A24.18,24.18,0,0,1,835.4,39Z" transform="translate(-573 -5.9)"/></svg>