<?xml version="1.0" encoding="utf-8"?>
<!-- Generator: Adobe Illustrator 26.0.2, SVG Export Plug-In . SVG Version: 6.00 Build 0)  -->
<svg version="1.1" id="Layer_1" xmlns="http://www.w3.org/2000/svg" xmlns:xlink="http://www.w3.org/1999/xlink" x="0px" y="0px"
	 viewBox="0 0 885.6 686" style="enable-background:new 0 0 885.6 686;" xml:space="preserve">
<style type="text/css">
	.st0{fill:#231F20;}
	.st1{fill:#FFFFFF;}
</style>
<g>
	<path class="st0" d="M573,5.9h29.6V11h-24.5v16.2h24.2v5h-24.2v20.3h24.2v5.1H573V5.9z"/>
	<path class="st0" d="M610.8,19.4h4.9V26c5.4-9.9,22.1-10.5,25.2,1.6c4.4-10.3,21-13.2,25.6-1.6c2.5,5.4,1.1,25,1.5,31.6h-5
		c-1-7.4,3-28.9-3.9-33.1c-20.6-7.6-17.2,20.3-17.3,33.1h-5c-1-7.9,2.9-28.4-3.9-33c-5.7-3.8-13.6,0.1-15.8,6.1
		c-2.3,4.8-1.2,20.8-1.4,26.9h-4.9V19.4z"/>
	<path class="st0" d="M678.3,19.4h4.9V26c5.4-9.9,22.2-10.5,25.2,1.6c4.4-10.3,21-13.2,25.6-1.6c2.5,5.4,1.1,25,1.5,31.6h-5
		c-1-7.4,3-28.9-3.9-33.1c-20.6-7.6-17.2,20.3-17.3,33.1h-4.9c-1-7.9,2.9-28.4-3.9-33c-5.7-3.8-13.7,0-15.9,6.1
		c-2.3,4.8-1.2,20.8-1.4,26.9h-4.9V19.4z"/>
	<path class="st0" d="M784,19.4v38.3h-4.9V51c-10.9,15-35.9,5.6-35-12.7c-0.9-18.1,24.9-27.7,35-12v-7L784,19.4z M764.3,23.1
		c-19.9,0-19.8,30.8,0,30.9C784.3,54.2,784.2,22.9,764.3,23.1z"/>
	<path class="st0" d="M573,72.7c5.4,0,19-0.2,22.2,0.8c9.5,1.8,13.2,14.3,7.3,21.5c-6,6.7-14.1,5-24.4,5.4v24H573L573,72.7z
		 M578.1,77.8v17.6c9.5,0.6,26.9,1,20.4-13.6C594.4,75.6,584.3,78.3,578.1,77.8z"/>
	<path class="st0" d="M652.9,86.2v38.2H648v-6.6c-10.9,15-35.9,5.6-35-12.7c-0.9-18.1,24.8-27.7,34.9-12v-7H652.9z M633.2,90
		c-19.8,0-19.8,30.8,0,30.9C653.2,121.1,653.1,89.8,633.2,90L633.2,90z"/>
	<path class="st0" d="M701.1,94.1l-3.9,2.4c-8.2-12.2-30.5-6.8-30,8.7c-0.3,15.6,21.3,21,30,9l3.9,2.6
		c-10.4,15.8-39.6,8.8-38.9-11.1C661.3,85.7,690.9,77.5,701.1,94.1z"/>
	<path class="st0" d="M710.5,71.4h4.9v30.2l17.7-15.4h7.2l-21,18.2l22.3,20h-6.9l-19.3-17.2v17.2h-4.9L710.5,71.4z"/>
	<path class="st0" d="M784.8,86.2v38.2h-4.9v-6.6c-10.9,15-36,5.6-35-12.7c-0.9-18.1,24.9-27.7,35-12v-7H784.8z M765.1,90
		c-19.8,0-19.8,30.8,0,30.9C785.1,121,785.1,89.8,765.1,90L765.1,90z"/>
	<path class="st0" d="M794,86.2h5v5.6c2.9-4.7,9-8.7,14.3-5.3l-2.5,4.1c-16-3.4-10.8,23-11.7,33.8h-5L794,86.2z"/>
	<path class="st0" d="M855.7,71.4v53h-4.8v-6.6c-10.8,15-35.9,5.6-35-12.6c-0.9-18.1,24.9-27.7,35-12V71.4H855.7z M836,89.9
		c-19.8,0-19.8,30.8,0,30.9C856,121,855.9,89.8,836,89.9z"/>
	<g>
		<path d="M883.7,35.8c-0.3,1.1-0.5,2.2-0.8,3.3c-1.3,3.9-3.6,7.1-6.3,10c-5.7,6.2-12.4,11-19.7,15.1c-1.1,0.6-1.6,0.5-2.5-0.5
			c-0.1-0.2-0.4-0.3-0.6-0.4c-5.3-2-9.9-5.1-13.9-9.1c-0.1-0.1-0.2-0.2-0.3-0.2c-0.1,0-0.2,0-0.2,0.1c-4,4.3-8.1,8.5-12.1,12.8
			c-0.7,0.8-1.4,1.5-2.2,2.3c-2.3,2.4-5.1,2.8-8.2,1.6c-4-1.6-7.6-3.8-10.8-6.7c-6.3-5.8-10.7-12.9-13.5-21
			c-1.2-3.3-1.6-6.7-0.9-10.2c1.1-5.4,5.1-8.7,10.6-8.9c5.3-0.2,9.3,2.4,12.3,6.5c0.6,0.8,1.1,1.8,1.8,2.8c0.1-0.3,0.2-0.6,0.3-0.8
			c2.1-4.8,5.5-8,10.8-8.7c3-0.4,5.7,0.1,7.7,2.6c0.1,0,0.2-0.1,0.2-0.1c3.5-3.4,7.7-3.9,12.1-2.3c3.7,1.3,6.6,3.8,8.7,7.2
			c0.1,0.2,0.2,0.3,0.4,0.6c1.1-2.6,2.7-4.9,4.7-6.8c3.7-3.5,8.1-4.7,13-3.1c4.9,1.7,7.7,5.4,8.8,10.4c0,0.2,0.1,0.4,0.2,0.6
			C883.7,33.7,883.7,34.7,883.7,35.8z M834.4,28.4c-1.3-1.1-2.7-1.7-4.3-1.8c-2.5-0.2-4.6,0.7-6.5,2.4c-3.2,2.8-4.9,6.3-4.7,10.6
			c0,0.8-0.6,1.5-1.4,1.6c-0.7,0.1-1.3-0.3-1.6-1.1c-0.4-1.3-0.7-2.6-1.2-3.8c-1.7-4.6-4.7-7.7-9.6-8.7c-5-1-9.4,1.9-10.3,6.8
			c-0.4,2.6,0,5.1,0.9,7.5c2.3,6.4,6.1,12.1,10.4,17.3c2.3,2.8,4.9,5.2,8.2,6.9c2.7,1.4,5.4,1.6,8.1,0.2c1.6-0.9,3.3-1.9,4.7-3.1
			c2.9-2.6,5.7-5.4,8.6-8.2c0.9-0.8,1.7-1.6,2.6-2.4C831.4,44.1,830.3,35.4,834.4,28.4z M835.1,35.7c0.1,1.1,0.2,2.3,0.4,3.4
			c1.2,6.3,4.5,11.2,9.5,15.1c3.1,2.4,6.5,4.7,9.7,6.9c0.2,0.1,0.7,0.1,0.9,0c1.2-0.7,2.4-1.4,3.6-2.2c5.5-3.6,10.7-7.5,14.9-12.6
			c3-3.5,5.3-7.4,5.8-12.1c0.6-4.9-2.4-9-7-9.6c-6.4-0.8-14.5,5-13.9,12.2c0.1,0.7-0.4,1.1-1.1,1.2c-1.1,0.1-1.4-0.1-1.8-1.1
			c-0.9-2.1-1.7-4.3-2.9-6.2c-1.8-2.9-4.6-4.4-8.1-4.4C839.1,26.2,835,30.1,835.1,35.7z"/>
		<path class="st1" d="M834.4,28.4c-4.2,7-3.1,15.7,3.9,23.9c-0.9,0.8-1.7,1.6-2.6,2.4c-2.8,2.7-5.6,5.5-8.6,8.2
			c-1.4,1.2-3,2.2-4.7,3.1c-2.7,1.4-5.4,1.3-8.1-0.2c-3.2-1.7-5.8-4.2-8.2-6.9c-4.4-5.2-8.1-10.8-10.4-17.3
			c-0.9-2.4-1.4-4.9-0.9-7.5c0.8-4.9,5.2-7.8,10.3-6.8c4.9,1,7.9,4.2,9.6,8.7c0.5,1.3,0.8,2.6,1.2,3.8c0.3,0.9,0.8,1.2,1.6,1.1
			c0.8-0.1,1.4-0.8,1.4-1.6c-0.1-4.3,1.6-7.8,4.7-10.6c1.8-1.6,4-2.5,6.5-2.4C831.8,26.7,833.2,27.3,834.4,28.4z"/>
		<path class="st1" d="M835.1,35.7c0-5.6,4-9.5,9.9-9.5c3.5,0,6.3,1.5,8.1,4.4c1.2,1.9,2,4.1,2.9,6.2c0.5,1,0.7,1.2,1.8,1.1
			c0.7-0.1,1.1-0.4,1.1-1.2c-0.7-7.2,7.5-13,13.9-12.2c4.6,0.6,7.6,4.7,7,9.6c-0.5,4.7-2.8,8.6-5.8,12.1c-4.2,5.1-9.4,9-14.9,12.6
			c-1.2,0.8-2.4,1.5-3.6,2.2c-0.2,0.1-0.7,0.1-0.9,0c-3.3-2.3-6.6-4.5-9.7-6.9c-5-3.8-8.3-8.8-9.5-15.1
			C835.3,37.9,835.2,36.8,835.1,35.7z"/>
	</g>
</g>
</svg>
